PathFileType	3	(X/Y/Z)	D:\minhoCalibration\240510\subject5_KPNP\preferred\preferred16.trc
DataRate	CameraRate	NumFrames	NumMarkers	Units	OrigDataRate	OrigDataStartFrame	OrigNumFrames
200.0	200.0	37	10	mm	200.0	301	149	
Frame#	Time	Left_Ankle_Outer1			Left_Ankle_Inner1			Left_Knee_Outer1			Left_Knee_Inner1			Left_Wrist1			Right_Wrist1			Right_Knee_Inner1			Right_Knee_Outer1			Right_Ankle_Inner1			Right_Ankle_Outer1			
		X1	Y1	Z1	X2	Y2	Z2	X3	Y3	Z3	X4	Y4	Z4	X5	Y5	Z5	X6	Y6	Z6	X7	Y7	Z7	X8	Y8	Z8	X9	Y9	Z9	X10	Y10	Z10	
301	1.495	55.900795	76.403091	-594.51117	6.281229	85.921799	-587.78253	144.20108	517.27844	-419.98419	54.898754	499.70303	-393.71329	192.13591	939.53186	-574.94055	-36.942905	1176.1476	-530.34723	-250.84436	885.30713	-148.35263	-269.59253	971.93732	-159.4416	-561.66138	691.67914	100.46867	-618.27734	764.43231	68.828911
302	1.5	55.864944	76.350121	-594.52655	6.1154833	85.686958	-587.6405	144.43353	517.60657	-420.83524	55.188194	499.95001	-394.5575	193.14879	940.62823	-574.42773	-37.88168	1176.0581	-529.80896	-251.64667	878.65247	-151.24286	-271.56863	965.45453	-162.08279	-564.92175	678.02911	88.636681	-621.4267	751.18341	57.912514
303	1.505	56.040371	76.358253	-594.65588	6.0919743	85.823837	-587.56421	144.71237	517.7879	-421.84	55.43977	500.16428	-395.39954	194.0141	941.69775	-574.13013	-38.18874	1175.9673	-529.67371	-252.16962	872.14728	-154.33095	-273.48276	958.8775	-164.98421	-567.78918	664.85596	78.004738	-624.30438	737.82001	46.557552
304	1.51	56.499138	76.491402	-595.11218	6.2946792	85.841225	-587.75568	145.27354	518.04175	-423.20743	56.043495	500.43674	-396.55621	194.92844	942.73248	-573.38489	-38.692871	1175.6018	-529.79773	-252.84398	865.68268	-157.93114	-275.72699	951.71045	-168.17462	-570.70941	650.33038	64.04084	-626.96759	724.43481	34.879017
305	1.515	56.341869	76.391495	-594.7995	6.3626008	85.879326	-587.82562	145.73506	518.48004	-424.58606	56.506809	500.64294	-397.57758	195.87111	943.91522	-572.62805	-39.468857	1175.797	-529.63995	-253.11255	859.02698	-161.40291	-277.12592	944.67108	-171.70972	-572.47424	637.10193	53.343037	-629.24091	710.77838	22.843874
306	1.52	56.329315	76.281387	-594.84198	6.4887147	86.025299	-587.7832	145.62436	518.92639	-425.5036	56.792717	501.16299	-398.73822	197.00633	945.24713	-571.59369	-39.777569	1175.089	-530.56854	-253.09854	852.40222	-165.0218	-278.84763	937.54663	-175.11171	-574.18604	622.59045	38.873543	-631.24292	697.04321	10.368085
307	1.525	56.434856	76.253639	-594.99426	6.4982152	85.946213	-587.71429	146.19966	519.26691	-427.0618	57.148994	501.76007	-399.85464	198.04478	946.60327	-570.37531	-41.112293	1174.408	-530.96545	-253.17076	845.59406	-168.90907	-280.15829	930.33856	-178.83119	-575.43115	609.03424	25.107822	-632.85699	683.24915	-2.3482749
308	1.53	56.56282	76.285042	-595.06958	6.6381454	86.046906	-587.83472	146.58586	519.63531	-428.46381	57.645378	502.17737	-401.27356	199.12727	948.02319	-569.15918	-41.450409	1174.3558	-531.83185	-253.05489	838.46539	-172.59828	-281.65036	923.02319	-182.64383	-576.09485	595.28125	13.465978	-634.05792	669.31458	-15.257344
309	1.535	56.787483	76.342148	-595.23657	6.9496441	85.771935	-587.87341	146.93372	519.9895	-429.76825	57.893757	502.61218	-402.47916	200.23381	949.4577	-567.8786	-43.004211	1173.2343	-532.54688	-252.85571	831.65222	-177.2261	-282.97092	915.29974	-186.79251	-576.58765	582.16199	1.5765454	-634.80981	655.32556	-28.51086
310	1.54	56.95182	76.387459	-595.36115	7.1737046	86.332153	-588.62286	147.24779	520.26483	-431.02087	58.180523	502.98578	-403.85715	201.43863	950.9162	-566.65027	-43.910648	1172.4269	-533.52435	-252.70647	824.30963	-181.40508	-283.94748	907.90851	-191.06822	-576.76654	568.29498	-11.900834	-635.21149	641.32446	-42.074696
311	1.545	57.133068	76.418541	-595.42297	7.3634367	86.195114	-588.61615	147.55809	520.57269	-432.16321	58.609993	503.25601	-405.40131	202.62869	952.3606	-565.35162	-45.161964	1171.4885	-534.39215	-252.50917	817.3537	-186.53064	-284.66739	900.28235	-195.5063	-576.51385	554.64673	-25.572117	-635.20465	627.31287	-55.819374
312	1.55	57.204155	76.391403	-595.50708	7.12255	86.225632	-588.26654	147.62617	520.81964	-433.03534	58.67094	503.79663	-406.74548	203.98213	953.72516	-563.91711	-45.701313	1170.719	-535.59814	-252.13245	810.04413	-191.5965	-285.7309	892.7052	-200.03416	-575.74792	540.90314	-39.585262	-634.79065	613.32532	-69.885681
313	1.555	57.434753	76.411346	-595.59637	7.9893293	85.730011	-588.5155	148.06871	520.92322	-434.14462	58.773193	504.16101	-408.16409	205.25644	955.21674	-562.63318	-47.014103	1169.777	-536.44244	-251.74594	802.43243	-196.59015	-286.5921	884.85858	-204.59389	-574.48187	527.31732	-53.650143	-633.86627	599.2124	-84.211723
314	1.56	57.381378	76.339081	-595.55408	7.9098577	86.239998	-588.79016	148.3203	521.20575	-435.05692	58.876228	504.47739	-409.48758	206.67754	956.64398	-561.34619	-47.848873	1168.5116	-537.54773	-251.67825	794.96539	-202.41408	-287.25922	877.18768	-209.29066	-572.67432	513.52911	-68.1987	-632.54932	585.16638	-98.750046
315	1.565	57.516018	76.263443	-595.59515	7.9008322	86.299171	-588.50916	148.56717	521.25269	-435.96402	59.047878	504.90314	-410.94342	207.98749	957.81384	-560.26154	-48.620804	1166.9811	-538.71497	-251.2877	787.76935	-208.11668	-287.91049	869.70282	-214.05551	-570.24896	500.13971	-82.66555	-630.71118	570.98828	-113.51671
316	1.57	57.646088	76.230888	-595.56696	8.1770744	86.261063	-588.98181	148.92819	521.39838	-436.83844	59.05069	505.18274	-412.1568	209.63609	959.21088	-558.94958	-42.001591	1159.0941	-529.76782	-250.86809	780.44464	-213.55713	-288.02158	862.16522	-219.24611	-567.03235	486.85339	-98.486023	-628.34802	556.74615	-128.57901
317	1.575	58.015507	76.269875	-595.79321	8.5096025	85.844566	-588.25006	149.23482	521.52386	-437.66211	59.273376	505.46307	-413.50137	211.01111	960.51617	-557.80829	-43.028488	1157.8308	-530.87756	-250.38245	773.6225	-219.61156	-289.08847	854.93054	-224.48628	-564.08612	473.46317	-111.86272	-625.43567	542.53448	-143.86023
318	1.58	58.171368	76.070168	-595.86835	8.8869953	85.881287	-588.84601	149.40926	521.56836	-438.49371	59.542198	505.71628	-414.94598	212.51521	961.73975	-556.62189	-51.791149	1163.5807	-541.06403	-250.13629	767.25616	-225.96669	-289.69675	847.91504	-229.82065	-560.0863	460.97217	-126.15987	-621.95245	528.23584	-159.2735
319	1.585	58.626152	76.101463	-596.31677	8.9818373	85.874214	-588.35706	149.90074	521.63739	-439.56113	59.818508	505.97476	-416.32291	214.828	963.68994	-554.45062	-51.977879	1161.2998	-543.10388	-249.09566	761.17432	-231.82008	-290.76355	840.69379	-235.87019	-555.2511	447.77631	-141.17267	-618.45435	514.30328	-175.13023
320	1.59	58.619869	75.953247	-596.13184	9.3448305	85.857002	-588.71191	150.14439	521.8985	-440.31131	60.096668	506.26474	-417.66586	216.4837	965.00537	-553.11798	-52.335247	1160.6945	-543.9765	-248.71227	755.14001	-237.7341	-291.85477	833.87195	-242.06384	-550.39923	434.68515	-156.34015	-614.12708	500.17773	-190.96815
321	1.595	58.899994	75.80471	-596.23871	9.3681154	86.218201	-589.24255	150.64488	521.99872	-441.28555	60.481216	506.60086	-419.03006	218.24297	966.57574	-551.74231	-52.044483	1159.1058	-545.5799	-248.30246	749.26532	-243.56569	-292.93069	826.90942	-248.80222	-544.95355	421.81256	-171.30775	-609.38611	486.07278	-206.95598
322	1.6	59.194599	75.807999	-596.29065	9.6826439	86.233177	-589.41156	151.08484	522.05249	-442.17746	60.961838	506.82831	-420.55197	219.78587	967.94287	-550.66461	-52.871857	1156.642	-546.79395	-247.91066	743.60559	-249.5408	-294.23083	819.92133	-255.55823	-539.17487	408.92886	-186.39879	-603.95258	472.4028	-222.9593
323	1.605	59.510944	75.737373	-596.48309	9.6047497	86.066391	-588.84302	151.74313	522.22314	-443.27142	61.340157	507.13885	-421.91025	221.32104	969.39935	-549.46387	-53.704105	1157.98	-545.53918	-247.50095	737.68024	-255.43398	-295.64862	813.23895	-262.23517	-533.06354	396.32242	-201.54468	-598.20227	458.67615	-239.20143
324	1.61	59.67474	75.718025	-596.56604	10.221303	86.193092	-589.49561	152.33475	522.38916	-444.28738	61.884548	507.42535	-423.37561	222.99294	970.87585	-548.23206	-55.180084	1154.8033	-549.65094	-247.22322	731.52631	-261.0242	-296.71603	805.95734	-269.71674	-526.43469	383.97302	-216.63324	-592.04163	445.08185	-255.6203
325	1.615	59.988796	75.693375	-596.66974	10.868491	86.774597	-589.69684	152.82954	522.51056	-445.30923	62.405025	507.55484	-424.81226	224.33185	972.18201	-547.14838	-53.504723	1151.004	-550.99011	-246.86414	725.64929	-267.20657	-297.60049	799.03705	-277.33194	-519.5152	371.83505	-231.74188	-585.46021	431.71674	-272.08163
326	1.62	60.649467	75.7808	-597.15607	11.122396	86.852455	-589.82788	153.4514	522.58264	-446.35559	63.255474	507.95441	-426.18457	225.96707	973.71344	-545.75128	-56.048336	1150.8127	-552.15186	-246.46504	719.63074	-273.50082	-298.69525	791.92969	-284.95477	-512.38434	359.98386	-246.79126	-578.55634	418.69507	-288.51221
327	1.625	60.49192	75.617264	-596.81689	11.156546	86.627686	-589.89966	154.13896	522.81012	-447.4931	63.979687	508.27725	-427.55789	227.39908	975.27356	-544.44025	-55.486092	1150.4376	-550.42194	-246.01561	713.52332	-279.94046	-299.45862	784.68628	-292.9339	-504.95847	348.35098	-261.9563	-571.35773	405.922	-305.08844
328	1.63	60.899235	75.541641	-597.05554	11.337098	86.812111	-589.72803	154.7679	523.01489	-448.59821	64.345352	508.64249	-429.05832	228.98335	976.85962	-542.80182	-56.190952	1149.2241	-552.58618	-245.62376	707.4967	-286.88223	-299.73474	777.3053	-301.18878	-497.21417	337.04163	-277.09402	-563.7262	393.39487	-321.72043
329	1.635	61.284	75.58564	-597.11554	11.703827	86.919052	-589.92719	155.39148	523.20288	-449.7272	64.819695	509.00198	-430.63577	230.47078	978.28809	-541.39532	-56.667843	1144.9253	-556.51385	-244.78116	700.71301	-293.50824	-299.7894	769.88916	-309.69788	-488.33917	325.99686	-292.56567	-555.74048	381.1962	-338.41531
330	1.64	61.596802	75.529701	-597.23981	11.957862	87.097656	-590.05139	155.98441	523.44452	-450.86612	65.132301	509.46002	-432.08868	231.97665	979.92078	-539.80389	-56.788403	1146.2285	-555.89929	-243.85643	694.20544	-300.73923	-299.42471	762.17322	-318.58844	-480.75275	315.04532	-307.28918	-547.4707	369.38217	-354.92981
331	1.645	61.944714	75.514076	-597.31201	12.275567	87.142151	-590.20886	156.42009	523.66376	-451.8812	65.405975	509.77658	-433.54642	233.46042	981.43097	-538.23676	-56.86491	1142.5575	-557.32172	-242.64307	687.5954	-308.10208	-299.06549	754.5141	-326.99194	-472.27414	304.5499	-322.50714	-538.86218	357.80457	-371.56818
332	1.65	62.131958	75.386848	-597.37854	12.530229	87.280243	-590.37756	156.79907	523.87701	-452.91837	65.878349	510.24152	-435.23856	235.09711	983.11481	-536.31689	-46.157444	1136.3341	-569.18726	-240.83986	680.92023	-315.90903	-298.2063	747.08276	-335.81647	-463.71902	294.44067	-337.69876	-529.92352	346.621	-388.30325
333	1.655	62.773972	75.464676	-597.90662	12.71473	87.144241	-590.7207	157.29652	524.12061	-454.02615	65.953377	510.5564	-436.75131	236.57576	984.62726	-534.67126	-45.497562	1137.3062	-561.98468	-239.09473	674.1817	-323.70734	-296.79517	739.35809	-345.03738	-454.78583	284.60995	-353.05499	-520.65466	335.92899	-404.81961
334	1.66	62.670959	75.194908	-597.6698	12.959461	87.239899	-590.71301	157.46184	524.29602	-454.89008	65.861542	510.95218	-438.21936	238.02843	986.27344	-532.83081	-46.927528	1132.064	-572.86938	-236.95082	667.50562	-331.68869	-295.28149	731.87244	-353.76102	-445.5285	275.06564	-368.39767	-510.94287	325.27127	-421.89786
335	1.665	62.841164	75.069717	-597.68005	13.13707	87.123138	-590.862	157.68916	524.48047	-455.79498	66.088089	511.14417	-440.03345	239.23851	987.75952	-531.03229	-47.116104	1130.4819	-574.89795	-234.21188	660.9845	-339.88708	-293.42029	724.63953	-362.5817	-436.28442	265.73572	-383.70215	-501.10126	315.06497	-438.57574
336	1.67	63.450962	75.18605	-598.2254	13.2975	87.174324	-591.08325	157.82295	524.65509	-456.57791	65.929283	511.47162	-441.57062	240.33093	989.15802	-529.01758	-49.179226	1127.3464	-580.18719	-231.24695	654.35803	-346.77902	-290.87793	717.41309	-371.74048	-426.99945	256.59729	-398.83334	-491.01151	305.2471	-455.24054
337	1.675	63.651802	75.205284	-598.3053	13.662558	87.573456	-591.80688	157.95079	524.80621	-457.3161	65.67836	512.02899	-443.0192	241.20929	990.38727	-527.23639	-50.687893	1128.5807	-576.65308	-227.793	647.31445	-356.9032	-288.42029	710.31494	-380.74786	-417.33496	247.77823	-414.05798	-480.67426	295.80469	-471.81927
